<svg width="200" height="104" viewBox="0 0 200 104" fill="none" xmlns="http://www.w3.org/2000/svg">
<path opacity="0.2" d="M99.6104 103.969C125.353 103.969 146.221 100.07 146.221 95.26C146.221 90.45 125.353 86.5508 99.6104 86.5508C73.8682 86.5508 53 90.45 53 95.26C53 100.07 73.8682 103.969 99.6104 103.969Z" fill="#F5F5F7" fill-opacity="0.8"/>
<path opacity="0.4" fill-rule="evenodd" clip-rule="evenodd" d="M136.898 69.6735L120.45 49.4301C119.661 48.4772 118.507 47.9004 117.292 47.9004H81.9272C80.7131 47.9004 79.5594 48.4772 78.7702 49.4301L62.3224 69.6735V80.2493H136.899V69.6735H136.898Z" fill="#AEB8C2"/>
<path fill-rule="evenodd" clip-rule="evenodd" d="M76.2582 21.7729H122.962C123.691 21.7729 124.391 22.0627 124.907 22.5784C125.422 23.0941 125.712 23.7936 125.712 24.5229V88.697C125.712 89.4263 125.422 90.1258 124.907 90.6415C124.391 91.1572 123.691 91.447 122.962 91.447H76.2582C75.5288 91.447 74.8294 91.1572 74.3136 90.6415C73.7979 90.1258 73.5082 89.4263 73.5082 88.697V24.5229C73.5082 23.7936 73.7979 23.0941 74.3136 22.5784C74.8294 22.0627 75.5288 21.7729 76.2582 21.7729V21.7729Z" fill="#BBBBBB"/>
<path fill-rule="evenodd" clip-rule="evenodd" d="M136.747 93.9824C136.214 96.0938 134.342 97.6674 132.116 97.6674H67.1042C64.8781 97.6674 63.0067 96.0931 62.4746 93.9824C62.3731 93.5801 62.3218 93.1668 62.322 92.7518V69.6745H80.4156C82.4142 69.6745 84.025 71.3575 84.025 73.4008V73.4283C84.025 75.4708 85.6544 77.1201 87.6529 77.1201H111.568C113.566 77.1201 115.196 75.4557 115.196 73.4124V73.4042C115.196 71.3609 116.806 69.6738 118.805 69.6738H136.899V92.7525C136.899 93.1767 136.846 93.5885 136.747 93.9824Z" fill="url(#paint0_linear_605_1888)"/>
<path opacity="0.6" fill-rule="evenodd" clip-rule="evenodd" d="M82.3416 28.6157H116.88C117.244 28.6157 117.594 28.7606 117.852 29.0185C118.11 29.2763 118.255 29.626 118.255 29.9907V47.1487C118.255 47.5133 118.11 47.8631 117.852 48.1209C117.594 48.3788 117.244 48.5237 116.88 48.5237H82.3416C81.9769 48.5237 81.6272 48.3788 81.3693 48.1209C81.1114 47.8631 80.9666 47.5133 80.9666 47.1487V29.9907C80.9666 29.626 81.1114 29.2763 81.3693 29.0185C81.6272 28.7606 81.9769 28.6157 82.3416 28.6157ZM82.5217 55.9878H116.699C117.112 55.9878 117.507 56.1517 117.799 56.4433C118.091 56.735 118.255 57.1305 118.255 57.543C118.255 57.9554 118.091 58.351 117.799 58.6426C117.507 58.9343 117.112 59.0981 116.699 59.0981H82.5217C82.1093 59.0981 81.7137 58.9343 81.4221 58.6426C81.1304 58.351 80.9666 57.9554 80.9666 57.543C80.9666 57.1305 81.1304 56.735 81.4221 56.4433C81.7137 56.1517 82.1093 55.9878 82.5217 55.9878ZM82.5217 64.0749H116.699C117.112 64.0749 117.508 64.2388 117.799 64.5305C118.091 64.8222 118.255 65.2178 118.255 65.6304C118.255 66.0429 118.091 66.4386 117.799 66.7303C117.508 67.022 117.112 67.1858 116.699 67.1858H82.5217C82.1092 67.1858 81.7135 67.022 81.4218 66.7303C81.1301 66.4386 80.9662 66.0429 80.9662 65.6304C80.9662 65.2178 81.1301 64.8222 81.4218 64.5305C81.7135 64.2388 82.1092 64.0749 82.5217 64.0749Z" fill="url(#paint1_linear_605_1888)"/>
<path fill-rule="evenodd" clip-rule="evenodd" d="M139.021 22.8882L134.325 24.7101C134.204 24.757 134.073 24.7689 133.946 24.7445C133.819 24.72 133.701 24.6602 133.607 24.5718C133.512 24.4835 133.444 24.3702 133.411 24.2451C133.378 24.12 133.381 23.988 133.42 23.8645L134.751 19.5972C132.971 17.5732 131.926 15.1051 131.926 12.4417C131.926 5.57013 138.883 0 147.464 0C156.043 0 163 5.57013 163 12.4417C163 19.3133 156.044 24.8834 147.463 24.8834C144.35 24.8834 141.452 24.1505 139.021 22.8882Z" fill="#1E577D"/>
<path d="M153.584 14.6885C154.666 14.6885 155.543 13.822 155.543 12.7532C155.543 11.6843 154.666 10.8179 153.584 10.8179C152.502 10.8179 151.625 11.6843 151.625 12.7532C151.625 13.822 152.502 14.6885 153.584 14.6885Z" fill="white"/>
<path fill-rule="evenodd" clip-rule="evenodd" d="M143.302 14.4467H139.384L141.377 11.0601L143.302 14.4467ZM145.75 11.0601H149.177V14.4467H145.75V11.0601Z" fill="white"/>
<defs>
<linearGradient id="paint0_linear_605_1888" x1="99.6103" y1="28.6156" x2="99.6103" y2="97.6675" gradientUnits="userSpaceOnUse">
<stop stop-color="#DEE0E1"/>
<stop offset="1" stop-color="#5F5F5F"/>
</linearGradient>
<linearGradient id="paint1_linear_605_1888" x1="99.61" y1="28.6157" x2="99.61" y2="97.6675" gradientUnits="userSpaceOnUse">
<stop stop-color="#1E577D"/>
<stop offset="1" stop-color="#204259"/>
</linearGradient>
</defs>
</svg>
